<svg id="elkrk53lqfgi1" xmlns="http://www.w3.org/2000/svg" xmlns:xlink="http://www.w3.org/1999/xlink" viewBox="0 0 190 214" shape-rendering="geometricPrecision" text-rendering="geometricPrecision"><style><![CDATA[#elkrk53lqfgi2_ts {animation: elkrk53lqfgi2_ts__ts 3000ms linear infinite normal forwards}@keyframes elkrk53lqfgi2_ts__ts { 0% {transform: translate(94.693150px,106.666405px) scale(1,1)} 16.666667% {transform: translate(94.693150px,106.666405px) scale(1.020000,1.020000)} 20% {transform: translate(94.693150px,106.666405px) scale(1,1);animation-timing-function: cubic-bezier(0.420000,0,0.580000,1)} 43.333333% {transform: translate(94.693150px,106.666405px) scale(0.800000,0.800000);animation-timing-function: cubic-bezier(0.420000,0,0.580000,1)} 66.666667% {transform: translate(94.693150px,106.666405px) scale(1,1);animation-timing-function: cubic-bezier(0.420000,0,0.580000,1)} 70% {transform: translate(94.693150px,106.666405px) scale(1.020000,1.020000)} 100% {transform: translate(94.693150px,106.666405px) scale(1,1)} }#elkrk53lqfgi3_to {animation: elkrk53lqfgi3_to__to 3000ms linear infinite normal forwards}@keyframes elkrk53lqfgi3_to__to { 0% {transform: translate(140.943783px,167.269722px)} 16.666667% {transform: translate(140.943783px,163.810127px)} 33.333333% {transform: translate(140.943783px,167.269722px)} 50% {transform: translate(140.943783px,163.810127px)} 66.666667% {transform: translate(140.943783px,167.269722px)} 83.333333% {transform: translate(140.943783px,163.810127px)} 100% {transform: translate(140.943783px,167.269722px)} }#elkrk53lqfgi4_to {animation: elkrk53lqfgi4_to__to 3000ms linear infinite normal forwards}@keyframes elkrk53lqfgi4_to__to { 0% {transform: translate(48.442972px,167.269722px)} 16.666667% {transform: translate(48.442972px,163.810127px)} 33.333333% {transform: translate(48.442972px,167.269722px)} 50% {transform: translate(48.442972px,163.810127px)} 66.666667% {transform: translate(48.442972px,167.269722px)} 83.333333% {transform: translate(48.442972px,163.810127px)} 100% {transform: translate(48.442972px,167.269722px)} }#elkrk53lqfgi5_to {animation: elkrk53lqfgi5_to__to 3000ms linear infinite normal forwards}@keyframes elkrk53lqfgi5_to__to { 0% {transform: translate(140.952641px,45.475499px);animation-timing-function: cubic-bezier(0.420000,0,0.580000,1)} 16.666667% {transform: translate(140.952641px,48.808899px);animation-timing-function: cubic-bezier(0.420000,0,0.580000,1)} 33.333333% {transform: translate(140.952641px,45.475499px);animation-timing-function: cubic-bezier(0.420000,0,0.580000,1)} 50% {transform: translate(140.952641px,48.808899px);animation-timing-function: cubic-bezier(0.420000,0,0.580000,1)} 66.666667% {transform: translate(140.952641px,45.475499px);animation-timing-function: cubic-bezier(0.420000,0,0.580000,1)} 83.333333% {transform: translate(140.952641px,48.808899px);animation-timing-function: cubic-bezier(0.420000,0,0.580000,1)} 100% {transform: translate(140.952641px,45.475499px)} }#elkrk53lqfgi6_to {animation: elkrk53lqfgi6_to__to 3000ms linear infinite normal forwards}@keyframes elkrk53lqfgi6_to__to { 0% {transform: translate(48.451822px,45.475499px);animation-timing-function: cubic-bezier(0.420000,0,0.580000,1)} 16.666667% {transform: translate(48.451822px,47.808899px);animation-timing-function: cubic-bezier(0.420000,0,0.580000,1)} 33.333333% {transform: translate(48.451822px,45.475499px);animation-timing-function: cubic-bezier(0.420000,0,0.580000,1)} 50% {transform: translate(48.451822px,47.808899px);animation-timing-function: cubic-bezier(0.420000,0,0.580000,1)} 66.666667% {transform: translate(48.451822px,45.475499px);animation-timing-function: cubic-bezier(0.420000,0,0.580000,1)} 83.333333% {transform: translate(48.451822px,47.808899px);animation-timing-function: cubic-bezier(0.420000,0,0.580000,1)} 100% {transform: translate(48.451822px,45.475499px)} }#elkrk53lqfgi7_to {animation: elkrk53lqfgi7_to__to 3000ms linear infinite normal forwards}@keyframes elkrk53lqfgi7_to__to { 0% {transform: translate(173.019630px,106.675404px);animation-timing-function: cubic-bezier(0.420000,0,0.580000,1)} 50% {transform: translate(165.384377px,106.675404px);animation-timing-function: cubic-bezier(0.420000,0,0.580000,1)} 100% {transform: translate(173.019630px,106.675404px)} }#elkrk53lqfgi8_to {animation: elkrk53lqfgi8_to__to 3000ms linear infinite normal forwards}@keyframes elkrk53lqfgi8_to__to { 0% {transform: translate(16.384438px,106.659031px);animation-timing-function: cubic-bezier(0.420000,0,0.580000,1)} 50% {transform: translate(24px,106.659031px);animation-timing-function: cubic-bezier(0.420000,0,0.580000,1)} 100% {transform: translate(16.384438px,106.659031px)} }#elkrk53lqfgi9_to {animation: elkrk53lqfgi9_to__to 3000ms linear infinite normal forwards}@keyframes elkrk53lqfgi9_to__to { 0% {transform: translate(94.702148px,185px);animation-timing-function: cubic-bezier(0,0,0.580000,1)} 13.333333% {transform: translate(94.702148px,185px);animation-timing-function: cubic-bezier(0,0,0.580000,1)} 20% {transform: translate(94.702148px,189px);animation-timing-function: cubic-bezier(0.250000,1,0.250000,1)} 50% {transform: translate(94.702148px,175px);animation-timing-function: cubic-bezier(0.420000,0,0.580000,1)} 66.666667% {transform: translate(94.702148px,189px);animation-timing-function: cubic-bezier(0.420000,0,0.580000,1)} 100% {transform: translate(94.702148px,185px)} }#elkrk53lqfgi10_to {animation: elkrk53lqfgi10_to__to 3000ms linear infinite normal forwards}@keyframes elkrk53lqfgi10_to__to { 0% {transform: translate(94.702148px,28px);animation-timing-function: cubic-bezier(0,0,0.580000,1)} 13.333333% {transform: translate(94.702148px,28px);animation-timing-function: cubic-bezier(0,0,0.580000,1)} 20% {transform: translate(94.702148px,24px);animation-timing-function: cubic-bezier(0.250000,1,0.250000,1)} 50% {transform: translate(94.702148px,40px);animation-timing-function: cubic-bezier(0.420000,0,0.580000,1)} 66.666667% {transform: translate(94.702148px,24px);animation-timing-function: cubic-bezier(0.420000,0,0.580000,1)} 100% {transform: translate(94.702148px,28px)} }]]></style><g id="elkrk53lqfgi2_ts" transform="translate(94.693150,106.666405) scale(1,1)"><path id="elkrk53lqfgi2" d="M94.702100,146.684000C72.639900,146.684000,54.684300,128.729000,54.684300,106.667000C54.684300,84.604400,72.639900,66.648800,94.702100,66.648800C116.764000,66.648800,134.702000,84.604400,134.702000,106.667000C134.702000,117.351000,130.542000,127.395000,122.987000,134.951000C115.431000,142.507000,105.387000,146.684000,94.702100,146.684000ZM94.702100,84.248800C82.328800,84.248800,72.284300,94.311000,72.284300,106.667000C72.284300,119.022000,82.346500,129.084000,94.702100,129.084000C100.693000,129.084000,106.329000,126.755000,110.560000,122.524000C114.791000,118.293000,117.120000,112.658000,117.120000,106.667000C117.120000,94.293200,107.058000,84.248800,94.702100,84.248800Z" transform="translate(-94.693150,-106.666405)" fill="rgb(2,226,172)" stroke="none" stroke-width="1"/></g><g id="elkrk53lqfgi3_to" transform="translate(140.943783,167.269722)"><path id="elkrk53lqfgi3" d="M124.267000,202.080000C119.413000,202.080000,115.467000,198.151000,115.467000,193.280000L115.467000,172.249000C115.467000,168.924000,117.333000,165.884000,120.302000,164.391000C132.622000,158.187000,142.933000,148.622000,150.098000,136.711000C152.605000,132.551000,158.009000,131.218000,162.169000,133.724000C166.329000,136.231000,167.662000,141.636000,165.156000,145.796000C157.227000,158.951000,146.205000,169.813000,133.049000,177.476000L133.049000,193.280000C133.067000,198.133000,129.120000,202.080000,124.267000,202.080000Z" transform="translate(-140.943783,-167.269722)" fill="rgb(0,0,0)" stroke="none" stroke-width="1"/></g><g id="elkrk53lqfgi4_to" transform="translate(48.442972,167.269722)"><path id="elkrk53lqfgi4" d="M65.137700,202.080000C60.284300,202.080000,56.337700,198.151000,56.337700,193.280000L56.337700,177.476000C43.199900,169.813000,32.159900,158.951000,24.231000,145.796000C21.724300,141.636000,23.057700,136.231000,27.217700,133.724000C31.377700,131.218000,36.782100,132.551000,39.288800,136.711000C46.453200,148.604000,56.764300,158.187000,69.084300,164.391000C72.053200,165.884000,73.919900,168.924000,73.919900,172.249000L73.919900,193.280000C73.919900,198.133000,69.991000,202.080000,65.137700,202.080000Z" transform="translate(-48.442972,-167.269722)" fill="rgb(0,0,0)" stroke="none" stroke-width="1"/></g><g id="elkrk53lqfgi5_to" transform="translate(140.952641,45.475499)"><path id="elkrk53lqfgi5" d="M157.636000,80.284400C154.649000,80.284400,151.751000,78.773300,150.098000,76.035500C142.933000,64.124400,132.622000,54.560000,120.302000,48.337700C117.333000,46.844400,115.467000,43.804400,115.467000,40.480000L115.467000,19.466600C115.467000,14.613300,119.396000,10.666600,124.267000,10.666600C129.138000,10.666600,133.067000,14.595500,133.067000,19.466600L133.067000,35.271100C146.205000,42.933300,157.245000,53.795500,165.173000,66.951100C167.680000,71.111100,166.347000,76.515500,162.187000,79.022200C160.747000,79.875500,159.182000,80.284400,157.636000,80.284400Z" transform="translate(-140.952641,-45.475499)" fill="rgb(0,0,0)" stroke="none" stroke-width="1"/></g><g id="elkrk53lqfgi6_to" transform="translate(48.451822,45.475499)"><path id="elkrk53lqfgi6" d="M31.751000,80.284400C30.204300,80.284400,28.639900,79.875500,27.217700,79.022200C23.057700,76.515500,21.724300,71.111100,24.231000,66.951100C32.159900,53.795500,43.182100,42.933300,56.337700,35.271100L56.337700,19.466600C56.337700,14.613300,60.266500,10.666600,65.137600,10.666600C70.008800,10.666600,73.937600,14.595500,73.937600,19.466600L73.937600,40.497700C73.937600,43.822200,72.071000,46.862200,69.102100,48.355500C56.764300,54.560000,46.471000,64.124400,39.288800,76.035500C37.653200,78.773300,34.737700,80.284400,31.751000,80.284400Z" transform="translate(-48.451822,-45.475499)" fill="rgb(0,0,0)" stroke="none" stroke-width="1"/></g><g id="elkrk53lqfgi7_to" transform="translate(173.019630,106.675404)"><path id="elkrk53lqfgi7" d="M189.404000,106.667000L189.404000,118.222000C189.404000,123.129000,184.089000,126.204000,179.840000,123.751000L169.831000,117.973000L159.822000,112.195000C155.573000,109.742000,155.573000,103.609000,159.822000,101.155000L169.831000,95.377700L179.840000,89.599900C184.089000,87.146600,189.404000,90.222200,189.404000,95.128800L189.404000,106.667000Z" transform="translate(-173.019630,-106.675404)" fill="rgb(0,0,0)" stroke="none" stroke-width="1"/></g><g id="elkrk53lqfgi8_to" transform="translate(16.384438,106.659031)"><path id="elkrk53lqfgi8" d="M0,106.667000L0,95.111000C0,90.204300,5.315550,87.128800,9.564430,89.582100L19.573300,95.359900L29.582200,101.138000C33.831100,103.591000,33.831100,109.724000,29.582200,112.178000L19.573300,117.955000L9.564430,123.733000C5.315550,126.187000,0,123.129000,0,118.222000L0,106.667000Z" transform="translate(-16.384438,-106.659031)" fill="rgb(0,0,0)" stroke="none" stroke-width="1"/></g><g id="elkrk53lqfgi9_to" transform="translate(94.702148,185)"><path id="elkrk53lqfgi9" d="M94.702300,213.333000C89.849000,213.333000,85.902300,209.404000,85.902300,204.533000L85.902300,178.453000C85.902300,173.600000,89.831200,169.653000,94.702300,169.653000C99.573500,169.653000,103.502000,173.582000,103.502000,178.453000L103.502000,204.533000C103.485000,209.404000,99.555700,213.333000,94.702300,213.333000Z" transform="translate(-94.702148,-191.492996)" fill="rgb(0,0,0)" stroke="none" stroke-width="1"/></g><g id="elkrk53lqfgi10_to" transform="translate(94.702148,28)"><path id="elkrk53lqfgi10" d="M94.702300,43.662200C89.849000,43.662200,85.902300,39.733300,85.902300,34.862200L85.902300,8.800000C85.902300,3.946660,89.831200,0,94.702300,0C99.573500,0,103.502000,3.928890,103.502000,8.800000L103.502000,34.880000C103.485000,39.733300,99.555700,43.662200,94.702300,43.662200Z" transform="translate(-94.702148,-21.831100)" fill="rgb(0,0,0)" stroke="none" stroke-width="1"/></g></svg>