<svg id="eekayebemss41" xmlns="http://www.w3.org/2000/svg" xmlns:xlink="http://www.w3.org/1999/xlink" viewBox="0 0 216 197" shape-rendering="geometricPrecision" text-rendering="geometricPrecision"><style><![CDATA[#eekayebemss42_ts {animation: eekayebemss42_ts__ts 3000ms linear infinite normal forwards}@keyframes eekayebemss42_ts__ts { 0% {transform: translate(107.559772px,144.826450px) scale(0.800000,0.800000);animation-timing-function: cubic-bezier(0.445000,0.050000,0.550000,0.950000)} 50% {transform: translate(107.559772px,144.826450px) scale(1,1);animation-timing-function: cubic-bezier(0.445000,0.050000,0.550000,0.950000)} 100% {transform: translate(107.559772px,144.826450px) scale(0.800000,0.800000)} }#eekayebemss44_to {animation: eekayebemss44_to__to 3000ms linear infinite normal forwards}@keyframes eekayebemss44_to__to { 0% {transform: translate(107.452484px,27.528858px);animation-timing-function: cubic-bezier(0.420000,0,0.580000,1)} 50% {transform: translate(107.452484px,42px);animation-timing-function: cubic-bezier(0.420000,0,0.580000,1)} 100% {transform: translate(107.452484px,27.528858px)} }]]></style><g id="eekayebemss42_ts" transform="translate(107.559772,144.826450) scale(0.800000,0.800000)"><path id="eekayebemss42" d="M107.569000,196.444000C104.386000,196.444000,101.453000,194.756000,99.870800,192L50.519700,106.542000C48.937500,103.787000,48.937500,100.409000,50.519700,97.653300C52.101900,94.897800,55.035200,93.208900,58.217400,93.208900L156.902000,93.208900C160.084000,93.208900,163.017000,94.897800,164.600000,97.653300C166.182000,100.409000,166.182000,103.787000,164.600000,106.542000L115.266000,192C113.666000,194.756000,110.733000,196.444000,107.569000,196.444000ZM73.613000,110.987000L107.569000,169.778000L141.506000,110.987000L73.613000,110.987000Z" transform="translate(-107.559772,-144.826450)" fill="rgb(0,0,0)" stroke="none" stroke-width="1"/></g><path id="eekayebemss43" d="M206.235000,196.444000L8.883950,196.444000C5.701730,196.444000,2.768400,194.756000,1.186180,192C-0.396044,189.244000,-0.396044,185.867000,1.186180,183.111000L65.701700,71.360000C68.155100,67.111100,73.595100,65.653300,77.843900,68.106700C82.092800,70.560000,83.550600,76,81.097300,80.248900L24.279500,178.667000L190.839000,178.667000L133.808000,79.893300C131.355000,75.644400,132.813000,70.204400,137.062000,67.751100C141.311000,65.297800,146.751000,66.755600,149.204000,71.004400L213.933000,183.111000C215.515000,185.867000,215.515000,189.244000,213.933000,192C212.351000,194.756000,209.417000,196.444000,206.235000,196.444000Z" fill="rgb(0,0,0)" stroke="none" stroke-width="1"/><g id="eekayebemss44_to" transform="translate(107.452484,27.528858)"><path id="eekayebemss44" d="M87.017000,54.168800C85.505900,54.168800,83.977000,53.777700,82.572600,52.977700C78.323700,50.524400,76.865900,45.084400,79.319200,40.835500L99.817000,5.333350C101.417000,2.577800,104.350000,0.888916,107.515000,0.888916C110.697000,0.888916,113.630000,2.577800,115.213000,5.333350L135.586000,40.622200C138.039000,44.871100,136.581000,50.311100,132.333000,52.764400C128.084000,55.217700,122.644000,53.760000,120.190000,49.511100L107.515000,27.555500L94.714800,49.724400C93.061400,52.586600,90.074800,54.168800,87.017000,54.168800Z" transform="translate(-107.452484,-27.528858)" fill="rgb(2,226,172)" stroke="none" stroke-width="1"/></g></svg>