<svg id="ev6cfm72ck0k1" xmlns="http://www.w3.org/2000/svg" xmlns:xlink="http://www.w3.org/1999/xlink" viewBox="0 0 209 214" shape-rendering="geometricPrecision" text-rendering="geometricPrecision"><style><![CDATA[#ev6cfm72ck0k2_to {animation: ev6cfm72ck0k2_to__to 3000ms linear infinite normal forwards}@keyframes ev6cfm72ck0k2_to__to { 0% {transform: translate(145.643317px,79.928492px);animation-timing-function: cubic-bezier(0.420000,0,0.580000,1)} 33.333333% {transform: translate(176.562312px,64.186850px);animation-timing-function: cubic-bezier(0.420000,0,0.580000,1)} 83.333333% {transform: translate(176.562312px,64.186850px);animation-timing-function: cubic-bezier(0.420000,0,0.580000,1)} 100% {transform: translate(145.643317px,79.928492px)} }#ev6cfm72ck0k3_to {animation: ev6cfm72ck0k3_to__to 3000ms linear infinite normal forwards}@keyframes ev6cfm72ck0k3_to__to { 0% {transform: translate(63.929830px,79.928490px);animation-timing-function: cubic-bezier(0.420000,0,0.580000,1)} 33.333333% {transform: translate(32.517704px,64.133450px);animation-timing-function: cubic-bezier(0.420000,0,0.580000,1)} 83.333333% {transform: translate(32.517704px,64.133450px);animation-timing-function: cubic-bezier(0.420000,0,0.580000,1)} 100% {transform: translate(63.929830px,79.928490px)} }#ev6cfm72ck0k4_to {animation: ev6cfm72ck0k4_to__to 3000ms linear infinite normal forwards}@keyframes ev6cfm72ck0k4_to__to { 0% {transform: translate(145.652320px,123.407905px);animation-timing-function: cubic-bezier(0.420000,0,0.580000,1)} 33.333333% {transform: translate(176.571315px,149.111000px);animation-timing-function: cubic-bezier(0.420000,0,0.580000,1)} 83.333333% {transform: translate(176.571315px,149.111000px);animation-timing-function: cubic-bezier(0.420000,0,0.580000,1)} 100% {transform: translate(145.652320px,123.407905px)} }#ev6cfm72ck0k5_to {animation: ev6cfm72ck0k5_to__to 3000ms linear infinite normal forwards}@keyframes ev6cfm72ck0k5_to__to { 0% {transform: translate(63.938727px,123.354906px);animation-timing-function: cubic-bezier(0.420000,0,0.580000,1)} 33.333333% {transform: translate(32.526601px,149.164001px);animation-timing-function: cubic-bezier(0.420000,0,0.580000,1)} 83.333333% {transform: translate(32.526601px,149.164001px);animation-timing-function: cubic-bezier(0.420000,0,0.580000,1)} 100% {transform: translate(63.938727px,123.354906px)} }#ev6cfm72ck0k6_to {animation: ev6cfm72ck0k6_to__to 3000ms linear infinite normal forwards}@keyframes ev6cfm72ck0k6_to__to { 0% {transform: translate(104.695724px,153.283822px);animation-timing-function: cubic-bezier(0.420000,0,0.580000,1)} 33.333333% {transform: translate(104.695724px,197.181984px);animation-timing-function: cubic-bezier(0.420000,0,0.580000,1)} 83.333333% {transform: translate(104.695724px,197.181984px);animation-timing-function: cubic-bezier(0.420000,0,0.580000,1)} 100% {transform: translate(104.695724px,153.283822px)} }#ev6cfm72ck0k7_to {animation: ev6cfm72ck0k7_to__to 3000ms linear infinite normal forwards}@keyframes ev6cfm72ck0k7_to__to { 0% {transform: translate(104.731277px,50px);animation-timing-function: cubic-bezier(0.420000,0,0.580000,1)} 33.333333% {transform: translate(104.731277px,16.133300px);animation-timing-function: cubic-bezier(0.420000,0,0.580000,1)} 83.333333% {transform: translate(104.731277px,16.133300px);animation-timing-function: cubic-bezier(0.420000,0,0.580000,1)} 100% {transform: translate(104.731277px,50px)} }#ev6cfm72ck0k8_tr {animation: ev6cfm72ck0k8_tr__tr 3000ms linear infinite normal forwards}@keyframes ev6cfm72ck0k8_tr__tr { 0% {transform: translate(104.500000px,112.018001px) rotate(0deg);animation-timing-function: cubic-bezier(0.250000,1,0.250000,1)} 50% {transform: translate(104.500000px,112.018001px) rotate(360deg);animation-timing-function: cubic-bezier(0.250000,1,0.250000,1)} 73.333333% {transform: translate(104.500000px,112.018001px) rotate(360deg);animation-timing-function: cubic-bezier(0.420000,0,0.580000,1)} 90% {transform: translate(104.500000px,112.018001px) rotate(720deg);animation-timing-function: cubic-bezier(0.420000,0,0.580000,1)} 100% {transform: translate(104.500000px,112.018001px) rotate(720deg)} }#ev6cfm72ck0k8_ts {animation: ev6cfm72ck0k8_ts__ts 3000ms linear infinite normal forwards}@keyframes ev6cfm72ck0k8_ts__ts { 0% {transform: scale(0,0)} 13.333333% {transform: scale(1,1);animation-timing-function: cubic-bezier(0.420000,0,0.580000,1)} 20% {transform: scale(1.120000,1.120000);animation-timing-function: cubic-bezier(0.420000,0,0.580000,1)} 50% {transform: scale(1,1);animation-timing-function: cubic-bezier(0.420000,0,0.580000,1)} 73.333333% {transform: scale(1,1);animation-timing-function: cubic-bezier(0.250000,1,0.250000,1)} 76.666667% {transform: scale(1.120000,1.120000);animation-timing-function: cubic-bezier(0.250000,1,0.250000,1)} 80% {transform: scale(1,1);animation-timing-function: cubic-bezier(0.420000,0,0.580000,1)} 83.333333% {transform: scale(0.840000,0.840000)} 86.666667% {transform: scale(0,0)} 100% {transform: scale(0,0)} }]]></style><g id="ev6cfm72ck0k2_to" transform="translate(145.643317,79.928492)"><path id="ev6cfm72ck0k2" d="M178.484000,94.062200C173.631000,94.062200,169.702000,90.133300,169.702000,85.279900L169.702000,62.720000L148.866000,50.684400C144.671000,48.266600,143.231000,42.897700,145.648000,38.702200C148.066000,34.506600,153.435000,33.066600,157.631000,35.484400L182.857000,50.044400C185.577000,51.608800,187.248000,54.506600,187.248000,57.653300L187.248000,85.279900C187.248000,90.133300,183.320000,94.062200,178.484000,94.062200Z" transform="translate(-165.861816,-64.186850)" fill="rgb(0,0,0)" stroke="none" stroke-width="1"/></g><g id="ev6cfm72ck0k3_to" transform="translate(63.929830,79.928490)"><path id="ev6cfm72ck0k3" d="M9.115220,94.062100C4.261890,94.062100,0.333008,90.133200,0.333008,85.279900L0.333008,57.653300C0.333008,54.524400,2.004120,51.626600,4.724120,50.044400L30.146300,35.377700C34.341900,32.959900,39.710800,34.399900,42.128500,38.595500C44.546300,42.791000,43.106300,48.159900,38.910800,50.577700L17.879700,62.719900L17.879700,85.279900C17.879700,90.133200,13.950800,94.062100,9.115220,94.062100Z" transform="translate(-21.817208,-64.133450)" fill="rgb(0,0,0)" stroke="none" stroke-width="1"/></g><g id="ev6cfm72ck0k4_to" transform="translate(145.652320,123.407905)"><path id="ev6cfm72ck0k4" d="M153.257000,178.987000C150.217000,178.987000,147.266000,177.404000,145.648000,174.595000C143.231000,170.400000,144.671000,165.031000,148.866000,162.613000L169.702000,150.578000L169.702000,128.018000C169.702000,123.164000,173.631000,119.235000,178.484000,119.235000C183.337000,119.235000,187.266000,123.164000,187.266000,128.018000L187.266000,155.644000C187.266000,158.773000,185.595000,161.671000,182.875000,163.253000L157.648000,177.813000C156.262000,178.613000,154.751000,178.987000,153.257000,178.987000Z" transform="translate(-165.870819,-149.111000)" fill="rgb(0,0,0)" stroke="none" stroke-width="1"/></g><g id="ev6cfm72ck0k5_to" transform="translate(63.938727,123.354906)"><path id="ev6cfm72ck0k5" d="M34.519700,179.093000C33.026300,179.093000,31.515200,178.720000,30.146300,177.920000L4.724120,163.253000C2.004120,161.671000,0.333008,158.773000,0.333008,155.644000L0.333008,128.018000C0.333008,123.164000,4.261890,119.235000,9.115230,119.235000C13.968600,119.235000,17.897400,123.164000,17.897400,128.018000L17.897400,150.578000L38.928500,162.720000C43.124100,165.138000,44.564100,170.507000,42.146300,174.702000C40.493000,177.529000,37.541900,179.093000,34.519700,179.093000Z" transform="translate(-21.826105,-149.164001)" fill="rgb(0,0,0)" stroke="none" stroke-width="1"/></g><g id="ev6cfm72ck0k6_to" transform="translate(104.695724,153.283822)"><path id="ev6cfm72ck0k6" d="M93.790800,213.315000C92.279700,213.315000,90.768600,212.924000,89.399700,212.142000L64.333100,197.671000C60.137500,195.253000,58.697500,189.884000,61.115300,185.689000C63.533100,181.493000,68.901900,180.053000,73.097500,182.471000L93.773100,194.418000L114.893000,182.222000C119.089000,179.804000,124.458000,181.244000,126.875000,185.440000C129.293000,189.635000,127.853000,195.004000,123.658000,197.422000L98.146400,212.142000C96.813100,212.924000,95.301900,213.315000,93.790800,213.315000Z" transform="translate(-93.995228,-197.181984)" fill="rgb(0,0,0)" stroke="none" stroke-width="1"/></g><g id="ev6cfm72ck0k7_to" transform="translate(104.731277,50)"><path id="ev6cfm72ck0k7" d="M119.284000,32.266600C117.791000,32.266600,116.280000,31.893300,114.911000,31.093300L93.790900,18.897800L73.115300,30.844400C68.919800,33.262200,63.550900,31.822200,61.133100,27.626600C58.715300,23.431100,60.155300,18.062200,64.350900,15.644400L89.417500,1.173330C92.137500,-0.391111,95.479700,-0.391111,98.199700,1.173330L123.711000,15.893300C127.906000,18.311100,129.346000,23.680000,126.929000,27.875500C125.275000,30.684400,122.324000,32.266600,119.284000,32.266600Z" transform="translate(-94.030781,-16.133300)" fill="rgb(0,0,0)" stroke="none" stroke-width="1"/></g><g id="ev6cfm72ck0k8_tr" transform="translate(104.500000,112.018001) rotate(0)"><g id="ev6cfm72ck0k8_ts" transform="scale(0,0)"><path id="ev6cfm72ck0k8" d="M97.808400,61.297800L105.826000,86.613400C106.377000,88.373400,108.031000,89.564500,109.862000,89.546700L136.422000,89.333400C140.528000,89.297800,142.235000,94.577800,138.893000,96.960000L117.293000,112.409000C115.799000,113.476000,115.159000,115.413000,115.746000,117.156000L124.155000,142.347000C125.453000,146.240000,120.973000,149.493000,117.666000,147.058000L96.297300,131.289000C94.803900,130.187000,92.777300,130.187000,91.301700,131.289000L69.932800,147.058000C66.626200,149.493000,62.146100,146.240000,63.443900,142.347000L71.852800,117.156000C72.439500,115.396000,71.817300,113.476000,70.306200,112.409000L48.688400,96.995600C45.346100,94.613400,47.052800,89.333400,51.159500,89.368900L77.719500,89.582200C79.568400,89.600000,81.203900,88.408900,81.755000,86.648900L89.772800,61.333400C91.017300,57.386700,96.563900,57.386700,97.808400,61.297800Z" transform="translate(-93.790560,-108.150691)" fill="rgb(2,226,172)" stroke="none" stroke-width="1"/></g></g></svg>