<svg id="eu5a9raa025p1" xmlns="http://www.w3.org/2000/svg" xmlns:xlink="http://www.w3.org/1999/xlink" viewBox="0 0 162 214" shape-rendering="geometricPrecision" text-rendering="geometricPrecision"><style><![CDATA[#eu5a9raa025p2_ts {animation: eu5a9raa025p2_ts__ts 3000ms linear infinite normal forwards}@keyframes eu5a9raa025p2_ts__ts { 0% {transform: translate(81.015922px,107.000051px) scale(0.950000,0.950000)} 10% {transform: translate(81.015922px,107.000051px) scale(1,1);animation-timing-function: cubic-bezier(0,0,0.580000,1)} 16.666667% {transform: translate(81.015922px,107.000051px) scale(0.950000,0.950000)} 100% {transform: translate(81.015922px,107.000051px) scale(0.950000,0.950000)} }#eu5a9raa025p3_ts {animation: eu5a9raa025p3_ts__ts 3000ms linear infinite normal forwards}@keyframes eu5a9raa025p3_ts__ts { 0% {transform: translate(81.015922px,106.968272px) scale(0,0)} 43.333333% {transform: translate(81.015922px,106.968272px) scale(0,0);animation-timing-function: cubic-bezier(0.420000,0,0.580000,1)} 53.333333% {transform: translate(81.015922px,106.968272px) scale(0.950000,0.950000)} 63.333333% {transform: translate(81.015922px,106.968272px) scale(1,1);animation-timing-function: cubic-bezier(0.420000,0,0.580000,1)} 83.333333% {transform: translate(81.015922px,106.968272px) scale(0.950000,0.950000)} 100% {transform: translate(81.015922px,106.968272px) scale(0.950000,0.950000)} }#eu5a9raa025p4_ts {animation: eu5a9raa025p4_ts__ts 3000ms linear infinite normal forwards}@keyframes eu5a9raa025p4_ts__ts { 0% {transform: translate(81.015922px,106.968272px) scale(0,0)} 33.333333% {transform: translate(81.015922px,106.968272px) scale(0,0);animation-timing-function: cubic-bezier(0.420000,0,0.580000,1)} 43.333333% {transform: translate(81.015922px,106.968272px) scale(0.830293,0.830293)} 53.333333% {transform: translate(81.015922px,106.968272px) scale(1,1);animation-timing-function: cubic-bezier(0.420000,0,0.580000,1)} 70% {transform: translate(81.015922px,106.968272px) scale(0.950000,0.950000)} 100% {transform: translate(81.015922px,106.968272px) scale(0.950000,0.950000)} }#eu5a9raa025p5_ts {animation: eu5a9raa025p5_ts__ts 3000ms linear infinite normal forwards}@keyframes eu5a9raa025p5_ts__ts { 0% {transform: translate(81.015922px,106.968272px) scale(0,0)} 26.666667% {transform: translate(81.015922px,106.968272px) scale(0,0);animation-timing-function: cubic-bezier(0.420000,0,0.580000,1)} 33.333333% {transform: translate(81.015922px,106.968272px) scale(0.830293,0.830293)} 40% {transform: translate(81.015922px,106.968272px) scale(1,1);animation-timing-function: cubic-bezier(0.420000,0,0.580000,1)} 50% {transform: translate(81.015922px,106.968272px) scale(0.950000,0.950000)} 100% {transform: translate(81.015922px,106.968272px) scale(0.950000,0.950000)} }#eu5a9raa025p6_ts {animation: eu5a9raa025p6_ts__ts 3000ms linear infinite normal forwards}@keyframes eu5a9raa025p6_ts__ts { 0% {transform: translate(81.731850px,106.954544px) scale(1,1)} 20% {transform: translate(81.731850px,106.954544px) scale(1.050000,1.050000)} 26.666667% {transform: translate(81.731850px,106.954544px) scale(0.700000,0.700000)} 33.333333% {transform: translate(81.731850px,106.954544px) scale(1.100000,1.100000)} 40% {transform: translate(81.731850px,106.954544px) scale(1,1)} 100% {transform: translate(81.731850px,106.954544px) scale(1,1)} }]]></style><g id="eu5a9raa025p2_ts" transform="translate(81.015922,107.000051) scale(0.950000,0.950000)"><path id="eu5a9raa025p2" d="M138,130L152.380000,109.329000C153.350000,107.934000,153.334000,106.078000,152.338000,104.701000L84.241900,10.485300C82.645200,8.276180,79.354800,8.276170,77.758100,10.485300L9.693550,104.657000C8.682720,106.055000,8.682710,107.945000,9.693550,109.343000L77.712300,203.451000C79.322100,205.679000,82.646800,205.656000,84.226900,203.408000L107,171" transform="translate(-81.015922,-106.968272)" fill="none" stroke="rgb(0,0,0)" stroke-width="16" stroke-linecap="round"/></g><g id="eu5a9raa025p3_ts" transform="translate(81.015922,106.968272) scale(0,0)"><path id="eu5a9raa025p3" d="M138,130L152.380000,109.329000C153.350000,107.934000,153.334000,106.078000,152.338000,104.701000L84.241900,10.485300C82.645200,8.276180,79.354800,8.276170,77.758100,10.485300L9.693550,104.657000C8.682720,106.055000,8.682710,107.945000,9.693550,109.343000L77.712300,203.451000C79.322100,205.679000,82.646800,205.656000,84.226900,203.408000L107,171" transform="translate(-81.015922,-106.968272)" fill="none" stroke="rgb(0,0,0)" stroke-width="16" stroke-linecap="round"/></g><g id="eu5a9raa025p4_ts" transform="translate(81.015922,106.968272) scale(0,0)"><path id="eu5a9raa025p4" d="M138,130L152.380000,109.329000C153.350000,107.934000,153.334000,106.078000,152.338000,104.701000L84.241900,10.485300C82.645200,8.276180,79.354800,8.276170,77.758100,10.485300L9.693550,104.657000C8.682720,106.055000,8.682710,107.945000,9.693550,109.343000L77.712300,203.451000C79.322100,205.679000,82.646800,205.656000,84.226900,203.408000L107,171" transform="translate(-81.015922,-106.968272)" fill="none" stroke="rgb(0,0,0)" stroke-width="16" stroke-linecap="round"/></g><g id="eu5a9raa025p5_ts" transform="translate(81.015922,106.968272) scale(0,0)"><path id="eu5a9raa025p5" d="M138,130L152.380000,109.329000C153.350000,107.934000,153.334000,106.078000,152.338000,104.701000L84.241900,10.485300C82.645200,8.276180,79.354800,8.276170,77.758100,10.485300L9.693550,104.657000C8.682720,106.055000,8.682710,107.945000,9.693550,109.343000L77.712300,203.451000C79.322100,205.679000,82.646800,205.656000,84.226900,203.408000L107,171" transform="translate(-81.015922,-106.968272)" fill="none" stroke="rgb(0,0,0)" stroke-width="16" stroke-linecap="round"/></g><g id="eu5a9raa025p6_ts" transform="translate(81.731850,106.954544) scale(1,1)"><path id="eu5a9raa025p6" d="M51.386900,103.856000L78.553500,73.763800C80.133800,72.013300,82.877700,72.002900,84.471200,73.741300L112.056000,103.834000C113.444000,105.348000,113.460000,107.667000,112.093000,109.199000L84.508000,140.127000C82.909400,141.920000,80.102600,141.909000,78.517600,140.105000L51.350700,109.176000C50.010700,107.651000,50.026300,105.363000,51.386900,103.856000Z" transform="translate(-81.731850,-106.954544)" fill="rgb(2,226,172)" stroke="none" stroke-width="1"/></g></svg>